<?xml version="1.0" encoding="iso-8859-1"?>
<!-- Generator: Adobe Illustrator 16.0.0, SVG Export Plug-In . SVG Version: 6.00 Build 0)  -->
<!DOCTYPE svg PUBLIC "-//W3C//DTD SVG 1.1//EN" "http://www.w3.org/Graphics/SVG/1.1/DTD/svg11.dtd">
<svg version="1.1" id="Capa_1" xmlns="http://www.w3.org/2000/svg" xmlns:xlink="http://www.w3.org/1999/xlink" x="0px" y="0px"
	 width="28.667px" height="28.667px" viewBox="0 0 28.667 28.667" style="enable-background:new 0 0 28.667 28.667;"
	 xml:space="preserve">
<g>
	<path d="M18.486,18.104c1.034-1.013,1.775-2.531,2.115-4.648c0.455,0.083,1.053-0.387,1.261-1.179
		c0.214-0.813,0.462-2.178-0.003-2.302c-0.137-0.037-0.279-0.009-0.422,0.063v-2.26c0.076-2.457-0.26-4.829-2.939-5.856
		C18.009,0.915,17.977,0,17.977,0c-1.206,1.086-5.785,1.526-5.785,1.526l0.052,0.014C6.438,2.137,7.276,4.224,7.276,7.777v2.26
		C7.134,9.965,6.992,9.936,6.854,9.974c-0.463,0.124-0.323,1.437-0.109,2.251c0.209,0.798,0.921,1.321,1.377,1.229
		c0.347,2.223,1.041,3.703,1.995,4.67c-4.443,1.625-7.604,5.728-7.604,10.543h23.641C26.152,23.827,22.962,19.71,18.486,18.104z"/>
</g>
<g>
</g>
<g>
</g>
<g>
</g>
<g>
</g>
<g>
</g>
<g>
</g>
<g>
</g>
<g>
</g>
<g>
</g>
<g>
</g>
<g>
</g>
<g>
</g>
<g>
</g>
<g>
</g>
<g>
</g>
</svg>
